EMG
version=1
nRows=13
nColumns=17
inDegrees=no
endheader
time	_right_gast_med	_right_glut_max	_left_gast_med	_left_glut_max	_right_glut_med	_right_bic_fem	_right_rect_fem	_right_vast_lat	_right_vast_med	_right_tens_fasc_lat	_left_glut_med	_left_bic_fem	_left_rect_fem	_left_vast_lat	_left_vast_med	_left_tens_fasc_lat
      0.00000000	      0.00624697	     -0.01447575	      0.03360975	      0.13920279	      0.01571082	      0.02845982	      0.01334038	      0.01664887	     -0.00451516	      0.01263563	     -0.00514389	      0.02212255	      0.01474900	      0.00126979	      0.03769581	      0.02647000
      0.01000000	     -0.00044852	     -0.01448516	      0.03585737	      0.86377412	      0.00665277	      0.02684177	      0.01596915	      0.02327274	      0.01715926	      0.01273933	      0.00105721	      0.02269506	      0.01423072	      0.00709272	      0.05170410	      0.03361475
      0.02000000	      0.01770363	     -0.00855309	     -0.06985276	      1.00204062	      0.00052284	      0.03254243	      0.01045422	      0.03248411	      0.01146326	      0.01891291	      0.01234358	      0.01870709	      0.01185201	      0.00022529	      0.03226300	      0.03638592
      0.03000000	      0.02386615	      0.00359645	      0.00471394	      0.95233870	      0.00121145	      0.02692453	     -0.01142616	      0.01543950	     -0.01856683	      0.02362628	      0.01559288	      0.01265844	      0.00721202	     -0.00735636	      0.00394529	      0.03642436
      0.04000000	      0.02319209	      0.02945312	      0.03625186	      0.77424657	      0.00360433	      0.01625440	      0.00218311	     -0.00982237	     -0.10278441	      0.02687897	      0.01333058	      0.00668783	      0.00582548	      0.00014972	     -0.01819070	      0.02606512
      0.05000000	      0.02251049	      0.03376976	      0.00702184	      0.56247395	      0.00414914	      0.01603055	      0.04952471	     -0.00627678	     -0.38847408	      0.02501605	      0.01738079	     -0.00410947	      0.00550841	      0.00740841	     -0.03921751	      0.02014089
      0.06000000	     -0.00835790	     -0.01423405	     -0.00880470	      0.38084927	      0.00310701	      0.01076517	      0.07059334	     -0.00714709	     -0.49356446	      0.01978011	      0.01848520	     -0.01917956	      0.00695382	      0.00497753	     -0.04062205	      0.01355533
      0.07000000	     -0.03351063	     -0.03382477	     -0.02176054	      0.27327979	      0.00510019	     -0.00837438	      0.01502310	      0.02961017	     -0.06212598	      0.02306488	      0.01536441	     -0.02104974	      0.00752808	      0.01053722	     -0.01871004	      0.01125905
      0.08000000	     -0.04911341	     -0.01651448	      0.07902686	      0.24076067	      0.01037561	     -0.00340042	     -0.03317563	      0.04992471	      0.35358667	      0.02275153	      0.01040535	     -0.01391192	      0.00691895	      0.01280850	      0.00464197	      0.00906540
      0.09000000	     -0.04303247	      0.00863796	      0.08193146	      0.21566164	      0.00966127	      0.02682875	     -0.05384983	      0.00245910	      0.42757440	      0.00646351	      0.00498935	     -0.00692911	      0.00233744	      0.00422785	      0.01448732	     -0.00696262
      0.10000000	      0.07705396	      0.01807907	      0.01155125	      0.17013131	      0.00678629	      0.01506819	     -0.06031277	      0.00220651	      0.26234084	     -0.00465249	      0.00044715	     -0.00446773	     -0.00030638	      0.00834350	      0.01424328	     -0.01874087
      0.11000000	      0.17845295	      0.00982276	     -0.01785871	      0.08401281	      0.00582653	     -0.00452404	     -0.02758458	     -0.00450603	      0.13446155	     -0.01809598	      0.00310636	      0.00401004	      0.00243910	      0.01262803	      0.01582372	     -0.02091547
      0.12000000	      0.01130402	      0.03668904	     -0.01276330	     -0.03714189	      0.00789015	     -0.04452115	      0.00843986	     -0.02093923	      0.15155847	     -0.01887073	      0.00599157	      0.02078312	      0.01099089	      0.00937511	      0.02400192	     -0.02441549
